<svg width="42" height="51" viewBox="0 0 42 51" fill="none" xmlns="http://www.w3.org/2000/svg">
<path fill-rule="evenodd" clip-rule="evenodd" d="M6.01908 6.96845L6.01907 6.96844C5.97917 6.94632 5.93882 6.92394 5.89459 6.89445H5.90292C5.90565 6.8899 5.90899 6.88504 5.91252 6.87989L5.91253 6.87987C5.91978 6.86932 5.92788 6.85751 5.93347 6.84445C5.94458 6.84029 5.95639 6.83682 5.9682 6.83334L5.96821 6.83334C5.98001 6.82987 5.99181 6.8264 6.00292 6.82223C6.06821 6.86887 6.09091 6.91802 6.11476 6.96967C6.12642 6.99492 6.13836 7.02078 6.1557 7.04723C8.61959 8.59445 9.99736 7.7639 10.9613 5.60557C11.0946 5.29446 11.2224 4.95834 11.3474 4.60001C12.4858 1.25624 15.1642 1.21554 17.7546 1.17617C18.5836 1.16357 19.4036 1.15111 20.1613 1.03057C21.989 0.744455 21.4057 2.44723 20.614 3.26668C20.3527 3.54064 20.0456 3.7713 19.7275 4.01018C18.9265 4.61175 18.0561 5.26549 17.6724 6.79445C18.4111 6.79445 19.1183 6.79908 19.8038 6.80356C21.3093 6.8134 22.7103 6.82256 24.1113 6.78057C26.7307 6.70279 27.1751 7.65557 25.7307 9.77501C25.4143 10.2422 25.1584 10.7528 24.903 11.2623L24.903 11.2623C24.5845 11.898 24.2667 12.532 23.8335 13.0778C22.3196 14.9722 22.3529 16.2667 24.8363 17.15C25.4613 17.3722 26.2668 17.9278 26.4251 18.4917C27.1789 21.1628 28.9836 23.1701 30.7831 25.1715C32.7767 27.3889 34.7639 29.5991 35.3085 32.6972C35.3338 32.8398 35.3511 32.9718 35.367 33.0927C35.4536 33.754 35.4968 34.0833 36.5724 33.9917C38.4057 33.8195 40.5751 33.7972 41.0863 36.1361C41.5779 38.3667 39.9863 39.7861 38.2835 40.9639C38.0515 41.1224 37.8748 41.3548 37.6773 41.6144L37.6772 41.6145L37.6772 41.6146C37.5909 41.728 37.5007 41.8467 37.4001 41.9667C37.5572 42.652 38.1512 42.6702 38.7071 42.6872C39.2621 42.7042 39.7793 42.72 39.7863 43.3972C39.7974 44.525 38.589 45.05 37.7529 45.3083C33.489 46.6333 28.9974 47.0833 24.6251 46.9945C22.2912 46.9429 20.2483 47.6889 18.2165 48.4308C16.7418 48.9692 15.273 49.5055 13.7029 49.7333C13.473 49.7677 13.2473 49.819 13.0171 49.8714C12.185 50.0609 11.2952 50.2634 9.94181 49.7195C11.5467 49.1366 12.607 47.9549 13.675 46.7646C15.2688 44.9882 16.88 43.1925 20.3446 43.3389C19.7381 43.0869 19.251 42.8814 18.8418 42.7087L18.8389 42.7075L18.8387 42.7074L18.8386 42.7074L18.8385 42.7074C18.0409 42.3708 17.5399 42.1594 17.0279 41.9722C14.6974 41.1306 14.3863 39.4945 16.1251 37.6C17.1057 36.5361 17.7835 35.3945 15.5613 34.9333C14.3397 34.6816 14.6312 34.1589 14.9544 33.5794C15.1875 33.1613 15.4372 32.7136 15.1474 32.3167C14.7751 31.8056 15.9974 31.6611 16.7029 31.75C18.7918 32.0195 21.7446 32.3806 20.9335 29.3278C20.8676 29.0811 20.8052 28.8031 20.7386 28.5068L20.7385 28.5065L20.7385 28.5064C20.2775 26.454 19.6184 23.5197 16.2446 23.9639C12.589 24.4445 11.4418 23.5389 13.7279 20.2222C13.2629 20.0142 12.6196 20.2545 12.0029 20.4849C10.8328 20.922 9.75868 21.3233 10.1807 18.5583C10.2057 18.3833 9.86125 17.9639 9.79181 17.9833C9.52605 18.0675 9.25448 18.3309 8.98452 18.5927L8.98451 18.5927C8.39951 19.1601 7.8221 19.7201 7.32792 18.4333C6.97531 17.516 7.57204 17.2735 8.27248 16.9888C8.98463 16.6993 9.804 16.3662 9.84181 15.2361C9.78667 15.0572 9.37544 15.0532 8.93276 15.0489C8.19341 15.0417 7.36634 15.0336 7.96403 14.2083C9.95359 11.4633 8.43143 10.3096 6.72839 9.0189L6.72833 9.01886L6.72817 9.01873C6.55286 8.88587 6.37564 8.75155 6.20014 8.6139C5.96994 8.43464 6.05376 8.16439 6.1434 7.87539C6.18572 7.73894 6.22933 7.59832 6.24181 7.46112C6.24181 7.45696 6.24042 7.4514 6.23903 7.44585L6.23903 7.44584C6.23764 7.44029 6.23625 7.43473 6.23625 7.43057C6.24459 7.30001 6.2307 7.16668 6.15014 7.04723C6.10415 7.01561 6.06188 6.99217 6.01909 6.96845L6.01908 6.96845ZM1.47792 27.1861C0.916807 27.0945 0.277918 26.5056 0.339029 25.6583C0.461252 24.1028 5.20292 20.9333 7.30847 21.0583C9.24761 21.1651 9.87295 22.4829 10.4607 23.7216C10.6989 24.2236 10.931 24.7127 11.2418 25.1028C11.1501 26.9361 10.0418 27.9722 8.85014 27.9778C6.51014 28.0069 4.15248 27.6223 1.82283 27.2423L1.47792 27.1861ZM8.19181 1.87779C5.56681 2.57779 4.05292 3.97223 4.23903 6.79168C2.48065 6.96463 2.99071 7.67977 3.46081 8.33888C3.53432 8.44194 3.60686 8.54364 3.66958 8.64168C3.8053 8.33292 4.04152 8.04282 4.28521 7.74352L4.28522 7.74352C4.44055 7.55274 4.59892 7.35824 4.73625 7.15279C4.8904 7.1129 5.04497 7.07218 5.19963 7.03144L5.19983 7.03138C5.44364 6.96715 5.68769 6.90285 5.9307 6.84168C6.16748 6.31966 6.57456 5.87828 6.98746 5.43059C7.82913 4.51801 8.69497 3.57922 8.19181 1.87779ZM3.57514 9.42501C3.99736 9.27779 3.88347 8.98334 3.66681 8.64168C3.55847 8.88057 3.49459 9.13057 3.57514 9.42501Z" fill="#0E8784"/>
</svg>
